<?xml version="1.0" encoding="UTF-8"?>
<!DOCTYPE svg PUBLIC "-//W3C//DTD SVG 1.1//EN" "http://www.w3.org/Graphics/SVG/1.1/DTD/svg11.dtd">
<svg xmlns="http://www.w3.org/2000/svg" version="1.1" width="49px" height="48px" style="shape-rendering:geometricPrecision; text-rendering:geometricPrecision; image-rendering:optimizeQuality; fill-rule:evenodd; clip-rule:evenodd" xmlns:xlink="http://www.w3.org/1999/xlink">
<g><path style="opacity:0.951" fill="#0ffd4f" d="M 18.5,-0.5 C 22.1667,-0.5 25.8333,-0.5 29.5,-0.5C 39.2618,2.92805 45.5951,9.59472 48.5,19.5C 48.5,22.1667 48.5,24.8333 48.5,27.5C 45.5951,37.4053 39.2618,44.0719 29.5,47.5C 25.8333,47.5 22.1667,47.5 18.5,47.5C 4.57022,42.3696 -1.26312,32.3696 1,17.5C 3.65685,8.34396 9.49018,2.34396 18.5,-0.5 Z"/></g>
<g><path style="opacity:1" fill="#364438" d="M 13.5,11.5 C 14.5,11.5 15.5,11.5 16.5,11.5C 16.1765,18.0221 16.5098,24.3554 17.5,30.5C 20.5,30.5 23.5,30.5 26.5,30.5C 26.5,31.5 26.5,32.5 26.5,33.5C 22.1667,33.5 17.8333,33.5 13.5,33.5C 13.5,26.1667 13.5,18.8333 13.5,11.5 Z"/></g>
<g><path style="opacity:1" fill="#1bc248" d="M 17.5,30.5 C 16.5098,24.3554 16.1765,18.0221 16.5,11.5C 15.5,11.5 14.5,11.5 13.5,11.5C 13.8993,10.4789 15.2326,10.1455 17.5,10.5C 17.5,17.1667 17.5,23.8333 17.5,30.5 Z"/></g>
<g><path style="opacity:1" fill="#353f37" d="M 24.5,13.5 C 31.9962,12.1745 35.4962,15.1745 35,22.5C 31.8438,27.9125 27.5104,28.9125 22,25.5C 19.5226,20.6692 20.356,16.6692 24.5,13.5 Z"/></g>
<g><path style="opacity:1" fill="#14f14e" d="M 25.5,15.5 C 32.6275,15.7063 34.2942,18.873 30.5,25C 24.4983,25.9931 22.3317,23.4931 24,17.5C 24.7172,16.9558 25.2172,16.2891 25.5,15.5 Z"/></g>
</svg>
