<?xml version="1.0" encoding="utf-8"?>
<!-- Generator: Adobe Illustrator 17.0.0, SVG Export Plug-In . SVG Version: 6.00 Build 0)  -->
<!DOCTYPE svg PUBLIC "-//W3C//DTD SVG 1.1//EN" "http://www.w3.org/Graphics/SVG/1.1/DTD/svg11.dtd">
<svg version="1.1" id="Capa_1" xmlns="http://www.w3.org/2000/svg" xmlns:xlink="http://www.w3.org/1999/xlink" x="0px" y="0px"
	 width="2662.768px" height="1023.616px" viewBox="0 0 2662.768 1023.616" enable-background="new 0 0 2662.768 1023.616"
	 xml:space="preserve">
<g>
	<g>
		<g>
			<path fill="#0FFF50" d="M385.551,712.424H33.527v-3.353c15.087-11.171,22.63-25.145,22.63-41.908V170.976
				c0-16.763-7.543-30.724-22.63-41.907v-3.353h121.532v3.353c-14.537,10.058-21.792,24.031-21.792,41.907v471.882h221.272
				c19.553,0,32.688-6.98,39.394-20.954h4.19L385.551,712.424z"/>
			<path fill="#0FFF50" d="M230.493,372.972c0-55.869,18.714-102.806,56.156-140.811c37.429-39.105,83.527-58.671,138.295-58.671
				c54.192,0,100.016,19.565,137.458,58.671c37.429,38.005,56.156,84.941,56.156,140.811c0,56.444-18.728,103.655-56.156,141.647
				c-38.005,38.556-83.815,57.833-137.458,57.833c-54.204,0-100.303-19.277-138.295-57.833
				C249.207,476.627,230.493,429.416,230.493,372.972z M337.777,464.331c23.469,24.595,52.516,36.879,87.168,36.879
				c34.64,0,63.412-12.284,86.33-36.879c23.469-24.581,35.203-55.03,35.203-91.358c0-36.316-11.734-66.489-35.203-90.521
				c-22.918-24.581-51.69-36.879-86.33-36.879c-34.652,0-63.699,12.298-87.168,36.879c-23.468,24.032-35.202,54.205-35.202,90.521
				C302.574,409.3,314.309,439.749,337.777,464.331z"/>
			<path fill="#0FFF50" d="M1267.282,129.069v-3.353h125.724v3.353c-17.326,11.184-28.785,25.145-34.364,41.907l-168.47,496.188
				c-6.705,19.566-2.803,33.526,11.734,41.908v3.353h-148.354v-3.353c15.087-7.255,18.715-21.229,10.896-41.908l-62.861-170.983
				l-62.862,170.983c-7.831,19.566-4.479,33.526,10.058,41.908v3.353H801.269v-3.353c15.087-9.495,18.989-23.469,11.734-41.908
				L645.372,170.976c-7.832-19.552-19.566-33.525-35.203-41.907v-3.353h126.562v3.353c-15.087,8.382-19.277,22.355-12.572,41.907
				l152.544,456.795l86.33-236.36l-81.301-220.435c-7.832-19.552-19.565-33.525-35.202-41.907v-3.353h124.885v3.353
				c-14.537,8.944-18.165,22.918-10.896,41.907l41.07,113.989l41.907-113.989c7.255-18.989,3.353-32.963-11.734-41.907v-3.353
				h124.886v3.353c-15.087,7.269-26.821,21.242-35.203,41.907l-81.301,220.435l86.33,236.36l152.544-456.795
				C1285.158,151.424,1281.243,137.451,1267.282,129.069z"/>
			<path fill="#0FFF50" d="M1418.131,125.716h367.95l14.249,90.521h-5.029c-6.705-13.961-19.841-20.954-39.394-20.954h-115.665
				v471.881c0,16.764,7.543,30.737,22.63,41.908v3.353H1541.34v-3.353c14.523-10.058,21.792-24.019,21.792-41.908V195.283h-114.827
				c-19.565,0-32.688,6.993-39.394,20.954h-5.028L1418.131,125.716z"/>
			<path fill="#0FFF50" d="M1956.215,726.673c-64.263,0-118.468-22.631-162.602-67.891
				c-44.147-45.811-66.215-101.417-66.215-166.793c0-65.926,22.067-121.244,66.215-165.955
				c44.134-45.81,98.339-68.729,162.602-68.729c63.137,0,116.778,22.919,160.926,68.729
				c44.697,45.824,67.053,101.142,67.053,165.955c0,64.826-22.355,120.419-67.053,166.793
				C2072.993,704.042,2019.352,726.673,1956.215,726.673z M1845.579,609.331c29.61,31.3,66.488,46.937,110.636,46.937
				c44.134,0,81.013-15.637,110.637-46.937c30.174-31.851,45.26-70.955,45.26-117.342c0-46.374-15.086-85.204-45.26-116.504
				c-29.624-31.85-66.503-47.774-110.637-47.774c-44.147,0-81.025,15.925-110.636,47.774c-29.624,31.3-44.423,70.13-44.423,116.504
				C1801.156,537.813,1815.955,576.931,1845.579,609.331z"/>
			<path fill="#0FFF50" d="M2629.246,125.716v3.353c-15.087,11.184-22.63,25.145-22.63,41.907v496.188
				c0,16.764,7.543,30.737,22.63,41.908v3.353h-122.37v-3.353c15.087-9.495,22.63-23.469,22.63-41.908v-0.838
				c0-30.174-9.508-61.46-28.497-93.873c-18.439-32.963-39.394-61.46-62.861-85.492c-19.566-21.229-43.034-47.774-70.405-79.624
				c-23.469-29.048-38.844-53.917-46.099-74.596v334.423c0,17.89,7.255,31.851,21.792,41.908v3.353h-121.532v-3.353
				c15.087-11.171,22.63-25.145,22.63-41.908V170.976c0-16.763-7.543-30.724-22.63-41.907v-3.353h121.532v3.353
				c-14.537,10.058-21.792,24.031-21.792,41.907v0.839c0,45.823,20.954,94.437,62.861,145.839
				c9.495,11.733,26.952,31.3,52.385,58.671c25.42,27.384,45.811,51.127,61.186,71.243c15.361,20.115,25.839,38.555,31.431,55.317
				V170.976c0-18.989-7.543-32.963-22.63-41.907v-3.353H2629.246z"/>
		</g>
		<g>
			<path fill="#0FFF50" d="M411.163,858.427l25.444,115.084c0.911,4.178,3.195,7.569,6.851,10.178v0.783h-28.38v-0.783
				c3.914-2.217,5.349-5.608,4.306-10.178l-5.872-27.009H368.3l-6.067,27.009c-0.914,4.698,0.521,8.093,4.307,10.178v0.783h-28.38
				v-0.783c3.522-2.477,5.804-5.871,6.85-10.178l25.444-115.084c1.043-4.697-0.392-8.089-4.306-10.178v-0.783h49.322v0.783
				C411.684,850.598,410.249,853.993,411.163,858.427z M386.502,863.907l-14.679,66.351h38.166l-14.68-66.351H386.502z"/>
			<path fill="#0FFF50" d="M598.274,984.472h-49.713v-0.783c3.522-2.608,5.284-5.871,5.284-9.786V858.036
				c0-3.915-1.762-7.175-5.284-9.786v-0.783h39.927c2.609,0,6.132,0.132,10.569,0.392c9.003,0.263,18.267,2.221,27.793,5.872
				c11.22,4.306,19.963,10.96,26.227,19.963c7.565,10.832,11.352,24.857,11.352,42.081c0,20.618-5.089,36.472-15.266,47.561
				c-6.526,7.309-14.355,12.722-23.487,16.245C616.54,983.102,607.406,984.732,598.274,984.472z M571.852,968.227h22.703
				c10.178,0,19.182-1.825,27.01-5.48c16.441-7.957,24.661-23.614,24.661-46.973c0-34.707-18.984-52.062-56.955-52.062h-17.419
				V968.227z"/>
			<path fill="#0FFF50" d="M838.621,848.249v-0.783h28.38v0.783c-3.655,2.089-6.067,5.416-7.242,9.981l-31.902,115.477
				c-1.307,4.438,0,7.765,3.914,9.981v0.783h-35.817v-0.783c3.783-2.217,5.089-5.544,3.915-9.981L767.77,858.231
				c-1.175-4.697-3.591-8.024-7.242-9.981v-0.783h28.38v0.783c-3.786,2.22-5.089,5.548-3.914,9.981l28.771,106.277l28.771-106.277
				C843.71,853.797,842.404,850.469,838.621,848.249z"/>
			<path fill="#0FFF50" d="M1045.889,963.334h0.979l-3.328,21.138h-72.612v-0.783c3.522-2.608,5.284-5.871,5.284-9.786V858.036
				c0-3.915-1.762-7.175-5.284-9.786v-0.783h67.133l3.327,21.139h-1.175c-1.565-3.261-4.697-4.894-9.395-4.894h-36.6v29.75h29.358
				c4.043,0,7.306-1.566,9.786-4.697h0.782v25.64h-0.782c-2.612-3.132-5.872-4.697-9.786-4.697h-29.358v58.521h42.472
				C1041.124,968.227,1044.192,966.597,1045.889,963.334z"/>
			<path fill="#0FFF50" d="M1253.549,979.188c1.565,0,2.349,0.522,2.349,1.565c0,1.565-1.144,2.936-3.426,4.11
				c-2.284,1.174-4.99,1.762-8.122,1.762c-12.007,0-21.661-7.175-28.967-21.53c-1.175-2.349-2.773-5.901-4.795-10.666
				c-2.025-4.762-3.688-8.48-4.991-11.156c-1.306-2.673-2.936-5.578-4.894-8.71c-1.957-3.132-4.012-5.446-6.165-6.948
				c-2.152-1.498-4.471-2.251-6.948-2.251h-10.96v48.539c0,4.178,1.694,7.438,5.089,9.786v0.783h-28.38v-0.783
				c3.522-2.608,5.284-5.871,5.284-9.786V858.036c0-3.915-1.762-7.175-5.284-9.786v-0.783h40.318
				c14.875,0,26.423,3.327,34.644,9.982c8.22,6.654,12.33,16.049,12.33,28.184c0,9.395-2.808,17.224-8.416,23.486
				c-5.611,6.264-13.505,10.441-23.683,12.526c4.043,1.697,7.829,5.808,11.352,12.331c3.652,6.525,6.588,13.049,8.808,19.572
				c2.478,6.654,5.805,12.593,9.982,17.811C1242.98,976.579,1247.937,979.188,1253.549,979.188z M1176.63,863.711v45.407h18.006
				c8.74,0,15.591-2.021,20.551-6.067c4.958-4.043,7.438-9.786,7.438-17.224c0-14.743-9.33-22.116-27.988-22.116H1176.63z"/>
			<path fill="#0FFF50" d="M1347.297,847.466h85.922l3.327,21.139h-1.174c-1.566-3.261-4.634-4.894-9.199-4.894h-27.01v110.191
				c0,3.915,1.762,7.178,5.284,9.786v0.783h-28.38v-0.783c3.392-2.349,5.089-5.608,5.089-9.786V863.711h-26.813
				c-4.569,0-7.633,1.633-9.199,4.894h-1.174L1347.297,847.466z"/>
			<path fill="#0FFF50" d="M1554.369,984.472h-28.38v-0.783c3.522-2.608,5.284-5.871,5.284-9.786v-77.897
				c0-4.174-1.762-7.501-5.284-9.981v-0.783h28.38v0.783c-3.395,2.611-5.089,5.938-5.089,9.981v77.897
				c0,4.178,1.694,7.438,5.089,9.786V984.472z"/>
			<path fill="#0FFF50" d="M1701.943,987.996c-10.832,0-19.835-3.199-27.01-9.591c-7.046-6.392-10.568-14.156-10.568-23.291
				c0-7.046,2.281-12.981,6.851-17.811c4.434-4.826,9.59-7.242,15.462-7.242c3.651,0,6.914,0.979,9.786,2.937
				c2.868,1.957,4.306,3.914,4.306,5.871c0,0.915-0.327,1.37-0.979,1.37l-2.349-0.587c-1.566-0.392-2.872-0.587-3.915-0.587
				c-3.395,0-6.232,1.37-8.514,4.109c-2.284,2.74-3.425,6.135-3.425,10.178c0,5.48,1.923,9.918,5.773,13.31
				c3.848,3.395,8.578,5.089,14.19,5.089c6,0,10.96-1.988,14.874-5.97c3.915-3.979,5.872-9.165,5.872-15.56
				c0-4.435-0.979-8.71-2.936-12.82s-4.502-7.731-7.634-10.862c-3.131-3.132-6.59-6.229-10.373-9.297
				c-3.786-3.064-7.603-6.165-11.449-9.297c-3.851-3.132-7.34-6.327-10.472-9.591c-3.132-3.26-5.676-7.046-7.633-11.352
				s-2.937-8.808-2.937-13.505c0-9.003,3.132-16.178,9.396-21.529c6.392-5.349,13.7-8.024,21.921-8.024
				c5.608,0,11.22,1.501,16.832,4.501c5.608,2.872,8.611,4.307,9.003,4.307c1.303,0,2.349-0.651,3.132-1.958h1.174v26.031h-1.174
				c-8.092-10.96-17.028-16.44-26.814-16.44c-4.697,0-8.449,1.272-11.254,3.816c-2.808,2.545-4.208,5.71-4.208,9.492
				c0,6.655,6.264,15.071,18.789,25.249c4.958,3.654,9.004,6.884,12.135,9.688c3.132,2.808,6.686,6.395,10.667,10.765
				c3.979,4.374,6.979,9.071,9.004,14.093c2.021,5.024,2.966,10.211,2.838,15.56c0,10.569-3.459,19.704-10.374,27.401
				C1723.014,984.148,1713.687,987.996,1701.943,987.996z"/>
			<path fill="#0FFF50" d="M1876.33,984.472h-28.38v-0.783c3.522-2.608,5.284-5.871,5.284-9.786V858.036
				c0-3.915-1.762-7.175-5.284-9.786v-0.783h28.38v0.783c-3.395,2.349-5.089,5.611-5.089,9.786v115.867
				c0,4.178,1.694,7.438,5.089,9.786V984.472z"/>
			<path fill="#0FFF50" d="M2085.165,847.466v0.783c-3.523,2.611-5.285,5.871-5.285,9.786v115.867c0,3.915,1.762,7.178,5.285,9.786
				v0.783h-28.576v-0.783c3.523-2.217,5.285-5.479,5.285-9.786v-0.195c0-7.046-2.221-14.352-6.654-21.921
				c-4.307-7.697-9.199-14.352-14.68-19.964c-4.568-4.957-10.049-11.156-16.44-18.594c-5.48-6.783-9.07-12.59-10.765-17.419v78.093
				c0,4.178,1.694,7.438,5.089,9.786v0.783h-28.38v-0.783c3.522-2.608,5.284-5.871,5.284-9.786V858.036
				c0-3.915-1.762-7.175-5.284-9.786v-0.783h28.38v0.783c-3.395,2.349-5.089,5.611-5.089,9.786v0.195
				c0,10.701,4.893,22.053,14.679,34.056c2.218,2.74,6.294,7.31,12.232,13.701c5.937,6.395,10.698,11.938,14.288,16.636
				c3.587,4.697,6.034,9.004,7.34,12.918v-77.506c0-4.435-1.762-7.697-5.285-9.786v-0.783H2085.165z"/>
			<path fill="#0FFF50" d="M2314.358,918.318v0.783c-3.395,2.611-5.089,5.938-5.089,9.981v32.49c0,4.438,1.498,7.241,4.502,8.416
				v0.783c-15.79,11.483-31.707,17.224-47.757,17.224c-20.486,0-37.71-7.047-51.671-21.139
				c-13.7-14.092-20.551-31.248-20.551-51.475c0-19.964,6.655-36.86,19.964-50.692c13.438-13.829,30.206-20.746,50.301-20.746
				c5.48,0,11.156,0.719,17.028,2.152c5.871,1.438,10.73,2.905,14.581,4.404c3.847,1.501,6.098,2.251,6.752,2.251
				c1.826,0,3.132-0.716,3.915-2.153h0.979v26.031h-0.783c-4.306-5.349-10.44-9.459-18.397-12.331
				c-8.221-3-16.05-4.501-23.487-4.501c-15.266,0-27.859,5.352-37.774,16.049c-9.917,10.44-14.875,23.554-14.875,39.34
				c0,16.441,5.153,30.014,15.463,40.711c10.438,10.568,23.419,15.854,38.948,15.854c9.395,0,17.68-2.021,24.856-6.067v-36.601
				c0-4.043-1.761-7.37-5.284-9.981v-0.783H2314.358z"/>
		</g>
	</g>
</g>
</svg>
